<svg version="1.1" id="Layer_1" xmlns="http://www.w3.org/2000/svg" xmlns:xlink="http://www.w3.org/1999/xlink" x="0px" y="0px" viewBox="0 0 100 100" xml:space="preserve"><desc>Copyright Opto 22</desc> 
<g>
	<g id="frame">
		<rect fill="none" width="100" height="100"></rect>
	</g>
	<g id="shape">
		<path fill="#e34300" d="M50,98.069c-4.045,0-7.336-3.291-7.336-7.336c0-2.548,1.345-4.931,3.521-6.259V6.305
			c0-2.104,1.712-3.816,3.815-3.816s3.815,1.712,3.815,3.816v78.169c2.176,1.329,3.521,3.711,3.521,6.259
			C57.336,94.778,54.045,98.069,50,98.069z M50,3.078c-1.779,0-3.226,1.447-3.226,3.227v78.507l-0.147,0.085
			c-2.081,1.204-3.374,3.441-3.374,5.836c0,3.72,3.027,6.747,6.747,6.747s6.747-3.027,6.747-6.747c0-2.395-1.293-4.631-3.374-5.836
			l-0.147-0.085V6.305C53.226,4.526,51.779,3.078,50,3.078z"></path>
	</g>
	<g id="dark">
		<path fill="#002633" d="M49.975,86.391v-0.75c2.003,0,3.083-0.588,3.083-0.828h0.75C53.809,85.849,51.88,86.391,49.975,86.391z"></path>
		<path fill="#002633" d="M49.975,78.54v-0.75c2.003,0,3.083-0.588,3.083-0.828h0.75C53.809,78.003,51.874,78.54,49.975,78.54z"></path>
		<path fill="#002633" d="M49.975,70.689v-0.75c2.003,0,3.083-0.588,3.083-0.828h0.75C53.809,70.157,51.868,70.689,49.975,70.689z"></path>
		<path fill="#002633" d="M49.975,62.838v-0.75c2.003,0,3.083-0.588,3.083-0.828h0.75C53.809,62.311,51.862,62.838,49.975,62.838z"></path>
		<path fill="#002633" d="M49.975,54.987v-0.75c2.003,0,3.083-0.588,3.083-0.828h0.75C53.809,54.465,51.856,54.987,49.975,54.987z"></path>
		<path fill="#002633" d="M49.975,47.137v-0.75c2.003,0,3.083-0.588,3.083-0.828h0.75C53.809,46.619,51.851,47.137,49.975,47.137z"></path>
		<path fill="#002633" d="M49.975,39.286v-0.75c2.003,0,3.083-0.588,3.083-0.828h0.75C53.809,38.773,51.845,39.286,49.975,39.286z"></path>
		<path fill="#002633" d="M49.975,31.435v-0.75c2.003,0,3.083-0.588,3.083-0.828h0.75C53.809,30.927,51.839,31.435,49.975,31.435z"></path>
		<path fill="#002633" d="M49.975,23.584v-0.75c2.003,0,3.083-0.588,3.083-0.828h0.75C53.809,23.081,51.833,23.584,49.975,23.584z"></path>
		<path fill="#002633" d="M49.975,15.734v-0.75c2.003,0,3.083-0.588,3.083-0.828h0.75C53.809,15.235,51.827,15.734,49.975,15.734z"></path>
		<path fill="#002633" d="M49.975,7.883v-0.75c2.003,0,3.083-0.588,3.083-0.828h0.75C53.809,7.389,51.821,7.883,49.975,7.883z"></path>
	</g>
	<g id="hlight">
		<rect x="47.725" y="6.064" opacity="0.5" fill="#1A1A1A" enable-background="new    " width="0.704" height="78.972"></rect>
		<path opacity="0.5" fill="#1A1A1A" enable-background="new    " d="M47.956,85.643c-0.246-0.065-0.486-0.127-0.719-0.186
			c-1.507,0.491-2.662,1.958-2.939,3.784c0.418,0.19,0.953,0.366,1.632,0.489C46.023,87.881,46.831,86.323,47.956,85.643z"></path>
		<circle opacity="0.5" fill="#1A1A1A" enable-background="new    " cx="48.253" cy="4.991" r="1.073"></circle>
	</g>
</g>
</svg>