<svg version="1.1" id="Layer_1" xmlns="http://www.w3.org/2000/svg" xmlns:xlink="http://www.w3.org/1999/xlink" x="0px" y="0px" viewBox="0 0 100 100" xml:space="preserve"><desc>Copyright Opto 22</desc> 
<g>
<g id="frame">
	<rect fill="none" width="100" height="100"></rect>
</g>
<g id="shape">
	<path fill="#999" d="M79.561,81.061H20.439c-0.828,0-1.5-0.672-1.5-1.5V20.439c0-0.828,0.672-1.5,1.5-1.5h59.122
		c0.828,0,1.5,0.672,1.5,1.5v59.122C81.061,80.389,80.389,81.061,79.561,81.061z"></path>
	<path fill="#999" d="M3.634,88.735l14.73-7.404c0.351-0.165,0.576-0.518,0.576-0.905v-60.85c0-0.388-0.224-0.741-0.576-0.905
		l-14.73-7.404c-0.367-0.172-0.777-0.228-1.177-0.162L0.76,11.385c-0.386,0.064-0.669,0.398-0.669,0.789v75.651
		c0,0.391,0.283,0.725,0.669,0.789l1.697,0.282C2.857,88.964,3.267,88.907,3.634,88.735z"></path>
</g>
<g id="dark">
	<path fill="#4d4d4d" d="M19.609,20.736L6.841,14.618c-0.181-0.089-0.377-0.077-0.535,0.004l-1.74,0.271
		c-0.195,0.03-0.338,0.198-0.338,0.395v69.426c0,0.196,0.141,0.363,0.334,0.395l1.826,0.303c0.141,0.047,0.302,0.043,0.453-0.03
		l12.768-6.118c0.208-0.1,0.341-0.31,0.341-0.541V21.277C19.949,21.046,19.817,20.835,19.609,20.736z M19.515,78.447
		c0,0.235-0.137,0.448-0.35,0.545L7.297,84.315c-0.265,0.124-0.57-0.07-0.57-0.362V16.047c0-0.293,0.304-0.486,0.57-0.362
		l11.868,5.323c0.213,0.098,0.35,0.311,0.35,0.546V78.447z"></path>
	<path fill="#4d4d4d" d="M20.397,20.997l11.007,10.807l0.4,36.792L20.997,79.603c-0.331,0-0.6-0.269-0.6-0.6V20.997z"></path>
	<polygon fill="#4d4d4d" points="10.182,53.719 9.015,53.75 9.015,46.25 10.182,46.281 	"></polygon>
	<g fill="#4d4d4d">
		<rect x="77.015" y="47.917" fill="#4d4d4d" width="0.917" height="4.167"></rect>
		<path fill="#4d4d4d" d="M68.596,31.804l-0.4,36.792l10.807,11.007c0.331,0,0.6-0.269,0.6-0.6V20.997L68.596,31.804z
			 M78.849,53.375h-2.083l-0.25-0.25v-6.25l0.25-0.25h2.083V53.375z"></path>
	</g>
</g>
<g id="light">
	<polygon fill="#ccc" points="20.997,79.603 79.003,79.603 68.196,68.596 31.804,68.596 	"></polygon>
</g>
<g id="shadow">
	<path fill="#000" d="M20.397,20.997c0-0.331,0.269-0.6,0.6-0.6h58.006c0.331,0,0.6,0.269,0.6,0.6L68.596,31.804
		c0-0.221-0.179-0.4-0.4-0.4H31.804c-0.221,0-0.4,0.179-0.4,0.4L20.397,20.997z"></path>
	<path fill="#000" d="M6.728,16.653l10.187,4.354c0.213,0.098,0.35,0.311,0.35,0.546v56.894l2.25,0V21.553
		c0-0.235-0.137-0.448-0.35-0.545L7.297,15.685c-0.265-0.124-0.57,0.069-0.57,0.362v67.906L6.728,16.653z"></path>
	<polygon fill="#000" points="77.682,47.917 77.682,51.833 77.015,51.833 77.015,52.083 77.932,52.083 77.932,47.917 	"></polygon>
</g>
<g id="hlight">
	<polygon fill="#fff" points="19.805,20.848 6.787,14.73 6.678,14.558 6.845,14.602 19.412,20.623 	"></polygon>
	<path fill="#fff" d="M5.978,15.157c0-0.242,0.138-0.438,0.328-0.535l-1.74,0.271c-0.195,0.03-0.338,0.198-0.338,0.395
		L5.978,15.157z"></path>
	<path fill="#fff" d="M2.457,11.103L0.76,11.385c-0.386,0.064-0.669,0.398-0.669,0.789l2.341-0.341c0,0,0.446-0.97,1.202-0.568
		C3.634,11.265,2.919,10.956,2.457,11.103z"></path>
	<path fill="#fff" stroke="#FFFFFF" stroke-width="0.25" stroke-miterlimit="10" d="M7.297,84.315l11.868-5.323"></path>
	<path fill="#fff" d="M19.515,78.447c0,0.235-0.137,0.448-0.35,0.545l-2.25,0c0.213-0.098,0.35-0.311,0.35-0.545L19.515,78.447z"></path>
	<path fill="#fff" d="M7.015,46.25v7.5h2v-7.5H7.015z M8.14,52.083H7.224v-4.167H8.14V52.083z"></path>
</g>
</g>
</svg>