<svg version="1.1" id="Layer_1" xmlns="http://www.w3.org/2000/svg" xmlns:xlink="http://www.w3.org/1999/xlink" x="0px" y="0px" viewBox="0 0 100 100" xml:space="preserve"><desc>Copyright Opto 22</desc> 
<g>
<g id="shape">
	<circle fill="#999999" cx="50.093" cy="32.75" r="32.75"></circle>
	<rect x="0.176" y="71.667" fill="#999999" width="99.833" height="26.833"></rect>
	<rect x="44.926" y="63" fill="#999999" width="10.333" height="10.5"></rect>
	<rect y="70" fill="#999999" width="4.5" height="30"></rect>
	<rect x="95.509" y="70" fill="#999999" width="4.5" height="30"></rect>
</g>
<g id="linear">
	<linearGradient class="linear" id="SVGID_1_" gradientUnits="userSpaceOnUse" x1="50.0926" y1="94.5113" x2="50.0926" y2="75.6554">
		<stop offset="0" style="stop-color:#E6E6E6"></stop>
		<stop offset="1" style="stop-color:#000000"></stop>
	</linearGradient>
	<polygon class="linear" fill="url(#SVGID_1_)" points="70.031,75.655 60.041,79.079 40.144,79.079 30.154,75.655 0.176,75.655 0.176,94.511 
		29.289,94.511 40.144,90.791 60.041,90.791 70.896,94.511 100.009,94.511 100.009,75.655 	"></polygon>
</g>
<g id="light">
	<circle fill="#E6E6E6" cx="50.093" cy="32.75" r="29.074"></circle>
	<path fill="#E6E6E6" d="M44.833,71.5v-6.409c0.606,0.096,1.217,0.179,1.833,0.241V71.5H44.833z"></path>
</g>
<g id="hlight">
	<path fill="#FFFFFF" d="M18.343,33.75C18.343,15.663,33.005,1,51.093,1c8.789,0,16.763,3.469,22.646,9.104
		C67.777,3.881,59.391,0,50.093,0c-18.087,0-32.75,14.663-32.75,32.75c0,9.298,3.881,17.685,10.104,23.646
		C21.812,50.514,18.343,42.539,18.343,33.75z"></path>
	<rect x="26.093" y="21.474" fill="#FFFFFF" width="48" height="23.053"></rect>
</g>
<g id="shadow">
	<path fill="#000000" d="M72.738,9.104c5.635,5.882,9.104,13.857,9.104,22.646c0,18.087-14.663,32.75-32.75,32.75
		c-8.789,0-16.763-3.469-22.646-9.104C32.408,61.619,40.795,65.5,50.093,65.5c18.087,0,32.75-14.663,32.75-32.75
		C82.843,23.452,78.961,15.066,72.738,9.104z"></path>
	<path d="M55.259,71.5v-6.409c-0.606,0.096-1.217,0.179-1.833,0.241V71.5H55.259z"></path>
	<polygon points="27.235,22.589 74.093,22.589 74.093,21.474 26.093,21.474 26.093,44.526 27.235,44.526 	"></polygon>
	<path d="M22.018,33.75c0-16.057,13.017-29.074,29.074-29.074c7.774,0,14.83,3.057,20.047,8.028
		c-5.296-5.558-12.764-9.028-21.047-9.028c-16.057,0-29.074,13.017-29.074,29.074c0,8.283,3.469,15.751,9.028,21.047
		C25.076,48.58,22.018,41.524,22.018,33.75z"></path>
</g>
</g>
</svg>