<svg version="1.1" id="Layer_1" xmlns="http://www.w3.org/2000/svg" xmlns:xlink="http://www.w3.org/1999/xlink" x="0px" y="0px" viewBox="0 0 100 100" xml:space="preserve"><desc>Copyright Opto 22</desc> 
<g><g id="shape">
	<path fill="#e34300" d="M50,1C23,1,1,23,1,50s22,49,49,49s49-22,49-49S77,1,50,1z M50,88.6c-21.3,0-38.6-17.3-38.6-38.6
		c0-8.5,2.8-16.4,7.5-22.8c0.2-2.2,1.1-4.4,2.8-6l0.1-0.1c1.7-1.7,3.9-2.6,6.3-2.8c6.2-4.3,13.8-6.9,22-6.9
		c21.3,0,38.6,17.3,38.6,38.6S71.3,88.6,50,88.6z"></path>
	<path fill="#e34300" d="M34.7,20.3l8.7,6.8c8.1-2.3,17.1-0.3,23.5,6l7.4-7.4c-10.9-10.9-27.4-12.9-40.3-6
		C34.2,19.9,34.4,20.1,34.7,20.3z"></path>
	<path fill="#e34300" d="M60.4,48.4c1.4,1.1,1.5,2.9,0.3,4.1l-7.5,7.5c-1.2,1.2-3.1,1.1-4.1-0.3L25.8,30.3c-1.1-1.4-0.9-3.5,0.3-4.7
		l0.1-0.1c1.2-1.2,3.3-1.3,4.7-0.3L60.4,48.4z"></path>
</g></g>
</svg>