<svg version="1.1" id="Layer_1" xmlns="http://www.w3.org/2000/svg" xmlns:xlink="http://www.w3.org/1999/xlink" x="0px" y="0px" viewBox="0 0 100 100" xml:space="preserve"><desc>Copyright Opto 22</desc> 
<g>
	<g id="shape">
	<path fill="#FF0000" d="M94.793,69.493c-2.579,0-4.678-2.212-4.678-4.93v-0.717c0-1.424-1.158-2.582-2.582-2.582h-0.411
		c-1.424,0-2.582,1.158-2.582,2.582v0.717c0,2.718-2.099,4.93-4.678,4.93s-4.678-2.212-4.678-4.93v-0.717
		c0-1.424-1.158-2.582-2.583-2.582h-0.41c-1.425,0-2.583,1.158-2.583,2.582v0.717c0,2.718-2.099,4.93-4.678,4.93
		s-4.678-2.212-4.678-4.93v-0.717c0-1.424-1.158-2.582-2.582-2.582H57.26c-1.424,0-2.582,1.158-2.582,2.582v0.717
		c0,2.718-2.099,4.93-4.678,4.93s-4.678-2.212-4.678-4.93v-0.717c0-1.424-1.158-2.582-2.582-2.582h-0.411
		c-1.424,0-2.582,1.158-2.582,2.582v0.717c0,2.718-2.099,4.93-4.678,4.93c-2.579,0-4.678-2.212-4.678-4.93v-0.717
		c0-1.424-1.158-2.582-2.582-2.582h-0.411c-1.424,0-2.582,1.158-2.582,2.582v0.717c0,2.718-2.099,4.93-4.678,4.93
		c-2.58,0-4.678-2.212-4.678-4.93v-0.717c0-1.424-1.158-2.582-2.582-2.582h-0.411c-1.424,0-2.582,1.158-2.582,2.582v0.717
		c0,2.718-2.099,4.93-4.678,4.93s-4.678-2.212-4.678-4.93V35.941c0-2.718,2.099-4.93,4.678-4.93s4.678,2.211,4.678,4.93v0.716
		c0,1.424,1.158,2.582,2.582,2.582h0.411c1.424,0,2.582-1.158,2.582-2.582v-0.716c0-2.718,2.099-4.93,4.678-4.93
		c2.579,0,4.678,2.211,4.678,4.93v0.716c0,1.424,1.158,2.582,2.582,2.582h0.411c1.424,0,2.582-1.158,2.582-2.582v-0.716
		c0-2.718,2.099-4.93,4.678-4.93c2.58,0,4.678,2.211,4.678,4.93v0.716c0,1.424,1.158,2.582,2.582,2.582h0.411
		c1.424,0,2.582-1.158,2.582-2.582V17h2.348v19.657c0,2.718-2.211,4.93-4.93,4.93h-0.411c-2.718,0-4.93-2.211-4.93-4.93v-0.716
		c0-1.424-1.045-2.582-2.331-2.582s-2.33,1.158-2.33,2.582v0.716c0,2.718-2.211,4.93-4.93,4.93h-0.411
		c-2.718,0-4.93-2.211-4.93-4.93v-0.716c0-1.424-1.045-2.582-2.33-2.582s-2.331,1.158-2.331,2.582v0.716
		c0,2.718-2.211,4.93-4.93,4.93h-0.411c-2.718,0-4.93-2.211-4.93-4.93v-0.716c0-1.424-1.045-2.582-2.33-2.582
		s-2.33,1.158-2.33,2.582v28.623c0,1.424,1.045,2.582,2.33,2.582s2.33-1.158,2.33-2.582v-0.717c0-2.718,2.211-4.93,4.93-4.93h0.411
		c2.718,0,4.93,2.212,4.93,4.93v0.717c0,1.424,1.045,2.582,2.331,2.582s2.33-1.158,2.33-2.582v-0.717c0-2.718,2.211-4.93,4.93-4.93
		h0.411c2.718,0,4.93,2.212,4.93,4.93v0.717c0,1.424,1.045,2.582,2.33,2.582s2.331-1.158,2.331-2.582v-0.717
		c0-2.718,2.211-4.93,4.93-4.93h0.411c2.718,0,4.93,2.212,4.93,4.93v0.717c0,1.424,1.045,2.582,2.33,2.582s2.33-1.158,2.33-2.582
		v-0.717c0-2.718,2.212-4.93,4.93-4.93h0.411c2.718,0,4.93,2.212,4.93,4.93v0.717c0,1.424,1.045,2.582,2.33,2.582
		s2.33-1.158,2.33-2.582v-0.717c0-2.718,2.212-4.93,4.931-4.93h0.41c2.719,0,4.931,2.212,4.931,4.93v0.717
		c0,1.424,1.045,2.582,2.33,2.582s2.33-1.158,2.33-2.582v-0.717c0-2.718,2.212-4.93,4.93-4.93h0.411c2.718,0,4.93,2.212,4.93,4.93
		v0.717c0,1.424,1.045,2.582,2.33,2.582s2.33-1.158,2.33-2.582V35.941c0-1.424-1.045-2.582-2.33-2.582s-2.33,1.158-2.33,2.582v0.716
		c0,2.718-2.212,4.93-4.93,4.93H87.12c-2.718,0-4.93-2.211-4.93-4.93v-0.716c0-1.424-1.045-2.582-2.33-2.582s-2.33,1.158-2.33,2.582
		v0.716c0,2.718-2.212,4.93-4.931,4.93H72.19c-2.719,0-4.931-2.211-4.931-4.93v-0.716c0-1.424-1.045-2.582-2.33-2.582
		s-2.33,1.158-2.33,2.582v0.716c0,2.718-2.212,4.93-4.93,4.93h-0.41c-2.718,0-4.93-2.211-4.93-4.93V17h2.348v19.657
		c0,1.424,1.158,2.582,2.582,2.582h0.41c1.424,0,2.582-1.158,2.582-2.582v-0.716c0-2.718,2.099-4.93,4.678-4.93
		s4.678,2.211,4.678,4.93v0.716c0,1.424,1.158,2.582,2.583,2.582H72.6c1.425,0,2.583-1.158,2.583-2.582v-0.716
		c0-2.718,2.099-4.93,4.678-4.93s4.678,2.211,4.678,4.93v0.716c0,1.424,1.158,2.582,2.582,2.582h0.413
		c1.424,0,2.582-1.158,2.582-2.582v-0.716c0-2.718,2.099-4.93,4.678-4.93s4.678,2.211,4.678,4.93v28.623
		C99.471,67.281,97.372,69.493,94.793,69.493z"></path>
	</g>
</g>
</svg>