<svg version="1.1" id="Layer_1" xmlns="http://www.w3.org/2000/svg" xmlns:xlink="http://www.w3.org/1999/xlink" x="0px" y="0px" viewBox="0 0 100 100" xml:space="preserve"><desc>Copyright Opto 22</desc> 
<g>
<g id="shape">
	<g fill="#e34300">
		<path fill="#B3B3B3" d="M99,28.5H86.5v30.75h6.706c-0.222,1.188-1.4,5.417-6.956,5.417v1c6.553,0,7.786-5.347,7.966-6.417H99V28.5
			z"></path>
		<path fill="#B3B3B3" d="M42.75,20.5h14.5c1.1,0,2-0.9,2-2v-0.968C60.454,17.694,65,18.597,65,23h1c0-5.331-5.619-6.327-6.75-6.474
			V12c0-1.1-0.9-2-2-2h-3V8.5c0-0.55-0.45-1-1-1h-6c-0.55,0-1,0.45-1,1V10h-3.5V8.5H44v-1H30.5v1h1.25v15H0V99h86V23.5H42.75V20.5z"></path>
	</g>
</g>
<g id="light">
	<polygon fill="#ff5600" points="56.583,62.917 49,62.307 49,57.708 47.333,57.708 47.333,35.667 49,35.667 49,32.667 
		47.333,32.667 47.333,29.833 49,29.833 49,26.833 44.667,26.833 44.667,29.833 46.083,29.833 46.083,32.667 44.667,32.667 
		44.667,35.667 46.083,35.667 46.083,57.708 44.667,57.708 44.667,70.625 46.083,70.625 46.083,95 44.667,95 44.667,98 46.083,98 
		46.083,99.5 47.333,99.5 47.333,98 49,98 49,95 47.333,95 47.333,70.625 49,70.625 49,66.026 56.583,65.417 	"></polygon>
	<polygon fill="#ff5600" points="81.25,31.75 81.25,33.768 68.25,34.5 68.25,37 81.25,37.732 81.25,39.75 84.25,39.75 84.25,31.75 	
		"></polygon>
	<polygon fill="#ff5600" points="4.75,31.75 4.75,33.768 17.75,34.5 17.75,37 4.75,37.732 4.75,39.75 1.75,39.75 1.75,31.75 	"></polygon>
	<polygon fill="#ff5600" points="4.75,89.25 4.75,91.268 17.75,92 17.75,94.5 4.75,95.232 4.75,97.25 1.75,97.25 1.75,89.25 	"></polygon>
	<polygon fill="#ff5600" points="81.25,89.25 81.25,91.268 68.25,92 68.25,94.5 81.25,95.232 81.25,97.25 84.25,97.25 84.25,89.25 	
		"></polygon>
	<rect x="38.25" y="61.167" fill="#ff5600" width="2.333" height="6.667"></rect>
	<g fill="#ff5600">
		<path fill="#ff5600" d="M97.833,48.75c0,0.55-0.45,1-1,1h-8.167c-0.55,0-1-0.45-1-1V31.083c0-0.55,0.45-1,1-1h8.167
			c0.55,0,1,0.45,1,1V48.75z"></path>
	</g>
</g>
<g id="dark">
	<rect x="82.25" y="31.75" fill="#8a3400" width="1" height="8"></rect>
	<rect x="82.25" y="89.25" fill="#8a3400" width="1" height="8"></rect>
	<rect x="2.75" y="31.75" fill="#8a3400" width="1" height="8"></rect>
	<rect x="2.75" y="89.25" fill="#8a3400" width="1" height="8"></rect>
	<rect x="93" y="41.5" fill="#8a3400" width="3.583" height="4.333"></rect>
	<rect x="89.083" y="31.833" fill="#8a3400" width="7.5" height="4.333"></rect>
	<rect x="89.468" y="37.5" fill="#8a3400" width="1.538" height="2.833"></rect>
	<rect x="89.321" y="42.2" fill="#8a3400" width="2.333" height="1.267"></rect>
	<rect x="91.968" y="37.5" fill="#8a3400" width="1.538" height="2.833"></rect>
	<rect x="94.564" y="37.5" fill="#8a3400" width="1.538" height="2.833"></rect>
	<rect x="42.75" y="15.333" fill="#8a3400" width="1.333" height="4"></rect>
</g>
<g id="shadow">
	<path d="M57.25,19.25h-14.5v1.25h14.5c1.1,0,2-0.9,2-2v-1.536C59.25,18.221,58.35,19.25,57.25,19.25z" fill="#1a0c00"></path>
	<path d="M53.5,13.75h-6.25c-0.506,0-0.91-0.386-0.975-0.875C46.27,12.918,46.25,12.956,46.25,13v0.5c0,0.55,0.45,1,1,1h6.25
		c0.55,0,1-0.45,1-1V13c0-0.044-0.02-0.082-0.025-0.125C54.41,13.364,54.006,13.75,53.5,13.75z" fill="#1a0c00"></path>
	<g fill="#1a0c00">
		<rect x="43" y="30.75" width="3.083" height="0.5" fill="#1a0c00"></rect>
		<polygon points="47.333,30.75 47.333,31.25 78.75,31.25 78.75,33.909 79.25,33.881 79.25,30.75 		" fill="#1a0c00"></polygon>
	</g>
	<polygon points="6.75,30.75 6.75,33.881 7.25,33.909 7.25,31.25 42.75,31.25 42.75,99 43.25,99 43.25,30.75 	" fill="#1a0c00"></polygon>
	<g fill="#1a0c00">
		<polygon points="7.25,91.409 7.25,37.591 6.75,37.619 6.75,91.381 		" fill="#1a0c00"></polygon>
		<polygon points="6.75,95.119 6.75,99 7.25,99 7.25,95.091 		" fill="#1a0c00"></polygon>
	</g>
	<g fill="#1a0c00">
		<polygon points="79.25,91.381 79.25,37.619 78.75,37.591 78.75,91.409 		" fill="#1a0c00"></polygon>
		<polygon points="78.75,95.091 78.75,99 79.25,99 79.25,95.119 		" fill="#1a0c00"></polygon>
	</g>
	<g fill="#1a0c00">
		<rect x="44.917" y="35.667" width="1.167" height="0.5" fill="#1a0c00"></rect>
		<rect x="44.917" y="29.833" width="1.167" height="0.5" fill="#1a0c00"></rect>
		<polygon points="47.583,36.167 49.25,36.167 49.25,33.167 49,33.167 49,35.667 47.333,35.667 47.333,57.708 47.583,57.708 		" fill="#1a0c00"></polygon>
		<rect x="44.917" y="70.625" width="1.167" height="0.5" fill="#1a0c00"></rect>
		<polygon points="49,58.208 49,62.307 49.25,62.327 49.25,58.208 		" fill="#1a0c00"></polygon>
		<polygon points="56.583,63.397 56.583,65.417 49,66.026 49,70.625 47.333,70.625 47.333,95 47.583,95 47.583,71.125 49.25,71.125 
			49.25,66.526 56.833,65.917 56.833,63.417 		" fill="#1a0c00"></polygon>
		<polygon points="49,98 47.333,98 47.333,99.5 46.333,99.5 46.333,99.5 47.583,99.5 47.583,98.5 49.25,98.5 49.25,95.5 49,95.5 		
			" fill="#1a0c00"></polygon>
		<polygon points="49,29.833 47.333,29.833 47.333,32.667 47.583,32.667 47.583,30.333 49.25,30.333 49.25,27.333 49,27.333 		" fill="#1a0c00"></polygon>
		<rect x="44.917" y="98" width="1.167" height="0.5" fill="#1a0c00"></rect>
	</g>
</g>
<g id="hlight">
	<rect y="23.75" fill="#ffd9c9" width="86" height="1"></rect>
	<path fill="#ffd9c9" d="M57.25,10h-14.5v1h14.5c1.1,0,2,1.086,2,2.413V12C59.25,10.9,58.35,10,57.25,10z"></path>
	<rect x="7.5" y="31.25" fill="#ffd9c9" width="35" height="0.5"></rect>
	<rect x="47.75" y="31.25" fill="#ffd9c9" width="30.75" height="0.5"></rect>
	<rect x="43.5" y="31.25" fill="#ffd9c9" width="2.5" height="0.5"></rect>
	
		<rect x="74.5" y="27.874" transform="matrix(0.0547 0.9985 -0.9985 0.0547 104.993 -42.135)" fill="#ffd9c9" width="0.5" height="13.021"></rect>
	
		<rect x="4.74" y="34.134" transform="matrix(0.9984 0.0562 -0.0562 0.9984 1.9493 -0.5777)" fill="#ffd9c9" width="13.021" height="0.5"></rect>
	
		<rect x="4.74" y="91.634" transform="matrix(0.9984 0.0562 -0.0562 0.9984 5.1795 -0.4869)" fill="#ffd9c9" width="13.021" height="0.501"></rect>
	
		<rect x="74.5" y="85.374" transform="matrix(0.0546 0.9985 -0.9985 0.0546 162.4154 12.2284)" fill="#ffd9c9" width="0.501" height="13.021"></rect>
	<path fill="#ffd9c9" d="M53.5,12h-6.25c-0.55,0-1,0.45-1,1v0.5c0-0.55,0.45-1,1-1h6.25c0.55,0,1,0.45,1,1V13
		C54.5,12.45,54.05,12,53.5,12z"></path>
	<path fill="#ffd9c9" d="M88.75,50.083v7h8v-7H88.75z M92.75,55.801c-1.211,0-2.192-0.981-2.192-2.192s0.981-2.192,2.192-2.192
		s2.192,0.981,2.192,2.192S93.961,55.801,92.75,55.801z"></path>
</g>
</g>
</svg>