<svg version="1.1" id="Layer_1" xmlns="http://www.w3.org/2000/svg" xmlns:xlink="http://www.w3.org/1999/xlink" x="0px" y="0px" viewBox="0 0 100 100" xml:space="preserve"><desc>Copyright Opto 22</desc> 
<g>
	<g id="shape">
		<path fill="#999" d="M50,99.5C22.706,99.5,0.5,77.294,0.5,50C0.5,22.706,22.706,0.5,50,0.5c27.294,0,49.5,22.206,49.5,49.5
			C99.5,77.294,77.294,99.5,50,99.5z"></path>
	</g>
	<g id="linear">
		<linearGradient class="linear" id="SVGID_1_" gradientUnits="userSpaceOnUse" x1="50" y1="1" x2="50" y2="98">
			
			
		<stop offset="0" stop-color="#ccc"></stop><stop offset="1" stop-color="#000"></stop></linearGradient>
		<circle class="linear" fill="url(#SVGID_1_)" cx="50" cy="50" r="49"></circle>
	</g>
	<g id="shadow">
		<path fill="#000" d="M50,96.75c-19.312,0-36.029-10.396-44.187-25.548C13.718,87.647,30.533,99,50,99
			c19.467,0,36.282-11.353,44.187-27.798C86.029,86.354,69.311,96.75,50,96.75z"></path>
	</g>
	<g id="hlight">
		<path fill="#fff" d="M50,91.168C27.3,91.168,8.832,72.7,8.832,50S27.3,8.832,50,8.832S91.168,27.3,91.168,50
			S72.7,91.168,50,91.168z"></path>
	</g>
	
	<g id="radial">
		<radialGradient class="radial" id="SVGID_2_" cx="50" cy="50" r="40.9275" gradientUnits="userSpaceOnUse">
			
			
		<stop offset="0" stop-color="#ccc"></stop><stop offset="1" stop-color="#000"></stop></radialGradient>
		<circle class="radial" fill="url(#SVGID_2_)" cx="50" cy="50" r="40.108"></circle>
	</g>
	
	<g id="light">
		<path fill="#ccc" d="M50,3.75c20.845,0,38.669,12.11,45.965,29.245C89.052,14.316,71.082,1,50,1
			C28.917,1,10.947,14.317,4.035,32.997C11.33,15.861,29.154,3.75,50,3.75z"></path>
	</g>
	
</g>
</svg>