<svg version="1.1" id="Layer_1" xmlns="http://www.w3.org/2000/svg" xmlns:xlink="http://www.w3.org/1999/xlink" x="0px" y="0px" viewBox="0 0 100 100" xml:space="preserve"><desc>Copyright Opto 22</desc> 
<g>
<g id="hlight">
	<g>
		<line fill="none" stroke="#E6E6E6" stroke-miterlimit="10" x1="5" y1="8.5" x2="94" y2="8.5"></line>
		<line fill="none" stroke="#E6E6E6" stroke-miterlimit="10" x1="5" y1="21.5" x2="94" y2="21.5"></line>
		<line fill="none" stroke="#E6E6E6" stroke-miterlimit="10" x1="5" y1="33.5" x2="94" y2="33.5"></line>
		<line fill="none" stroke="#E6E6E6" stroke-miterlimit="10" x1="5" y1="46.5" x2="94" y2="46.5"></line>
		<line fill="none" stroke="#E6E6E6" stroke-miterlimit="10" x1="5" y1="58.5" x2="94" y2="58.5"></line>
		<line fill="none" stroke="#E6E6E6" stroke-miterlimit="10" x1="5" y1="71.5" x2="94" y2="71.5"></line>
		<line fill="none" stroke="#E6E6E6" stroke-miterlimit="10" x1="5" y1="83.5" x2="94" y2="83.5"></line>
	</g>
	<g>
		<line fill="none" stroke="#E6E6E6" stroke-miterlimit="10" x1="91.5" y1="6" x2="91.5" y2="95"></line>
		<line fill="none" stroke="#E6E6E6" stroke-miterlimit="10" x1="79.5" y1="6" x2="79.5" y2="95"></line>
		<line fill="none" stroke="#E6E6E6" stroke-miterlimit="10" x1="66.5" y1="6" x2="66.5" y2="95"></line>
		<line fill="none" stroke="#E6E6E6" stroke-miterlimit="10" x1="54.5" y1="7" x2="54.5" y2="96"></line>
		<line fill="none" stroke="#E6E6E6" stroke-miterlimit="10" x1="41.5" y1="7" x2="41.5" y2="96"></line>
		<line fill="none" stroke="#E6E6E6" stroke-miterlimit="10" x1="29.5" y1="7" x2="29.5" y2="96"></line>
		<line fill="none" stroke="#E6E6E6" stroke-miterlimit="10" x1="16.5" y1="7" x2="16.5" y2="96"></line>
	</g>
</g>
<g id="shape">
	<path d="M68.959,90.014c-22.956-0.644-35.033-6.282-41.581-36.592c-1.686-7.804-3.151-16.226-4.444-23.655
		c-3.376-19.408-4.019-21.631-6.25-21.631c-1.91,0-4.524,0-6.005,43.556C9.598,83.463,8.311,91.15,7.735,93H6v3h2.52
		c1.879,0,3.654,0,5.157-44.207c0.865-25.433,2.126-35.117,2.973-38.799c0.949,3.602,2.197,10.775,3.33,17.287
		c1.297,7.458,2.768,15.911,4.467,23.774c6.929,32.075,20.399,38.284,44.429,38.957C80.499,93.338,88.919,93.713,94,93.974V90.97
		C88.879,90.708,80.485,90.336,68.959,90.014z"></path>
</g>
<g id="light">
	<polygon fill="#999999" points="95,96.167 3.75,96.167 3.75,4.333 4.75,4.333 4.75,95.167 95,95.167 	"></polygon>
</g>
</g>
</svg>