<svg version="1.1" id="Layer_1" xmlns="http://www.w3.org/2000/svg" xmlns:xlink="http://www.w3.org/1999/xlink" x="0px" y="0px" viewBox="0 0 100 100" xml:space="preserve"><desc>Copyright Opto 22</desc> 
<g><g id="shape">
	<path fill="#660000" d="M38.8,33.3c-1,0-1.8,0.8-1.8,1.8v13.8H18.5c-1,0-1.8,0.8-1.8,1.8s0.8,1.8,1.8,1.8H37v16.3
		c0,1,0.8,1.8,1.8,1.8s1.8-0.8,1.8-1.8V35.1C40.6,34.1,39.8,33.3,38.8,33.3z"></path>
	<path fill="#660000" d="M47.8,65.3c-1,0-1.8-0.8-1.8-1.8V40.2c0-1,0.8-1.8,1.8-1.8s1.8,0.8,1.8,1.8v23.3
		C49.6,64.5,48.8,65.3,47.8,65.3z"></path>
	<path fill="#660000" d="M56.8,70.4c-1,0-1.8-0.8-1.8-1.8V35.1c0-1,0.8-1.8,1.8-1.8s1.8,0.8,1.8,1.8v33.6
		C58.6,69.6,57.8,70.4,56.8,70.4z"></path>
	<path fill="#660000" d="M85.7,48.8H67.5v-8.6c0-1-0.8-1.8-1.8-1.8c-1,0-1.8,0.8-1.8,1.8v23.3c0,1,0.8,1.8,1.8,1.8
		c1,0,1.8-0.8,1.8-1.8V52.4h18.2c1,0,1.8-0.8,1.8-1.8S86.7,48.8,85.7,48.8z"></path>
	<path fill="#660000" d="M15.9,36.7h-5.3v-5.3c0-1-0.8-1.8-1.8-1.8s-1.8,0.8-1.8,1.8v5.3H1.8c-1,0-1.8,0.8-1.8,1.8s0.8,1.8,1.8,1.8
		h5.3v5.3c0,1,0.8,1.8,1.8,1.8s1.8-0.8,1.8-1.8v-5.3h5.3c1,0,1.8-0.8,1.8-1.8S16.9,36.7,15.9,36.7z"></path>
	<path fill="#660000" d="M98.2,40.3H84.1c-1,0-1.8-0.8-1.8-1.8s0.8-1.8,1.8-1.8h14.2c1,0,1.8,0.8,1.8,1.8S99.2,40.3,98.2,40.3z"></path>
</g></g>
</svg>