<svg version="1.1" id="Layer_1" xmlns="http://www.w3.org/2000/svg" xmlns:xlink="http://www.w3.org/1999/xlink" x="0px" y="0px" viewBox="0 0 100 100" xml:space="preserve"><desc>Copyright Opto 22</desc> 
<g>
<g id="shape">
	<path fill="#999" d="M69.015,7.59h-0.252h-2.271h-0.568c-0.694,0-1.262,0.227-1.262,0.505c0,0.278-0.568,0.505-1.262,0.505
		h-0.116v-1.85H52.813V6.368l0.96-0.876l-0.534-1.181l0.713-0.322c-0.432-0.956-0.472-1.044-0.94-2.08
		c-2.278-0.454-5.899,0.091-9.873,1.528c0.234-0.084,0.471-0.179,0.702-0.257l-0.706-1.561l-7.271,3.281l0.732,1.62c0,0,0,0,0.001,0
		c-3.128,1.869-5.47,3.943-6.521,5.739l0.948,2.096l0.707-0.32l0.534,1.181l1.119,0.63v1.075l4.542,2.586v5.236h2.25v0.75h1.304
		c-0.278,0-0.505,0.227-0.505,0.505v0.252v2.505v0.568c0,0.244,0.125,0.452,0.306,0.591h-0.726h-0.262c-0.55,0-1,0.45-1,1v0.262
		v2.28v0.558c0,0.694,0.227,1.262,0.505,1.262c0.185,0,0.34,0.263,0.428,0.635h-0.461h-3.174h-0.125c-0.55,0-1,0.45-1,1v2.542
		c0,0.55,0.45,1,1,1h0.125h1.146v0.595l-0.482-0.02l-0.622,0.301c-0.297,0.144-0.297,0.379,0,0.523l0.622,0.301l0.482,0.02v0.389
		l-0.482-0.02l-0.622,0.301c-0.297,0.144-0.297,0.379,0,0.523l0.622,0.301l0.482,0.02v0.389l-0.482-0.02l-0.622,0.301
		c-0.297,0.144-0.297,0.379,0,0.523l0.622,0.301l0.482,0.02v0.389l-0.482-0.02l-0.622,0.301c-0.297,0.144-0.297,0.379,0,0.523
		l0.622,0.301l0.482,0.02v0.389l-0.482-0.02l-0.622,0.301c-0.297,0.144-0.297,0.379,0,0.523l0.622,0.301l0.482,0.02v0.677h4.479
		v49.332l0.359,0.602c0.379,0.371,0.982,0.382,1.374,0.024l0.412-0.626V48.905h4.479v-0.217l0.499,0.021l0.622-0.301
		c0.297-0.144,0.297-0.379,0-0.523l-0.622-0.301l-0.499-0.021v-0.389l0.499,0.021l0.622-0.301c0.297-0.144,0.297-0.379,0-0.523
		l-0.622-0.301l-0.499-0.021V45.66l0.499,0.021l0.622-0.301c0.297-0.144,0.297-0.379,0-0.523l-0.622-0.301l-0.499-0.021v-0.389
		l0.499,0.021l0.622-0.301c0.297-0.144,0.297-0.379,0-0.523l-0.622-0.301l-0.499-0.021v-0.389l0.499,0.021l0.622-0.301
		c0.297-0.144,0.297-0.379,0-0.523l-0.622-0.301l-0.499-0.021v-1.054h0.748h0.398h0.125c0.55,0,1-0.45,1-1V36.91c0-0.55-0.45-1-1-1
		h-0.125h-0.398h-2h-1.32c0.088-0.372,0.243-0.635,0.428-0.635c0.278,0,0.505-0.568,0.505-1.262v-0.558v-2.28v-0.262
		c0-0.55-0.45-1-1-1h-0.262h-0.726c0.181-0.139,0.306-0.347,0.306-0.591v-0.563V26.25v-0.257c0-0.275-0.225-0.5-0.5-0.5h1.005v-0.75
		h2.25v-5.236l4.542-2.586v-0.583h10.471v-1.85H63.4c0.694,0,1.262,0.227,1.262,0.505c0,0.278,0.568,0.505,1.262,0.505h0.568h2.271
		h0.252c0.555,0,1.009-0.454,1.009-1.009v-0.252v-1.682v-2.019V8.851V8.599C70.024,8.044,69.57,7.59,69.015,7.59z M42.169,3.792
		c-0.591,0.232-1.187,0.482-1.786,0.753C40.982,4.273,41.578,4.023,42.169,3.792z M38.429,5.495
		c-0.011,0.006-0.021,0.012-0.032,0.017C38.408,5.507,38.418,5.501,38.429,5.495z"></path>
</g>
<g id="linear">
	<linearGradient class="linear" id="SVGID_1_" gradientUnits="userSpaceOnUse" x1="30.2677" y1="13.4865" x2="53.7731" y2="13.4865">
		
		
	<stop offset="0" stop-color="#ccc"></stop><stop offset="1" stop-color="#000"></stop></linearGradient>
	<polygon class="linear" fill="url(#SVGID_1_)" points="52.298,2.231 30.784,11.939 32.266,15.216 33.384,15.845 33.384,16.92 37.926,19.507 
		37.926,24.743 48.271,24.743 48.271,19.507 52.813,16.92 52.813,6.368 53.773,5.492 	"></polygon>
	<linearGradient class="linear" id="SVGID_2_" gradientUnits="userSpaceOnUse" x1="57.4812" y1="6.7486" x2="57.4812" y2="16.3369">
		
		
	<stop offset="0" stop-color="#ccc"></stop><stop offset="1" stop-color="#000"></stop></linearGradient>
	<path class="linear" fill="url(#SVGID_2_)" d="M63.285,6.749H52.806c-0.623,0-1.128,2.146-1.128,4.794s0.505,4.794,1.128,4.794h10.479V6.749z"></path>
	<linearGradient class="linear" id="SVGID_3_" gradientUnits="userSpaceOnUse" x1="36.4101" y1="41.8399" x2="50.1835" y2="41.8399">
		
		
		
	<stop offset="0.0159" stop-color="#ccc"></stop><stop offset="0.1323" stop-color="#fff"></stop><stop offset="1" stop-color="#000"></stop></linearGradient>
	<path class="linear" fill="url(#SVGID_3_)" d="M37.255,42.153l-0.622-0.301c-0.297-0.144-0.297-0.379,0-0.523l0.622-0.301l12.083,0.5l0.622,0.301
		c0.297,0.144,0.297,0.379,0,0.523l-0.622,0.301L37.255,42.153z"></path>
	<linearGradient class="linear" id="SVGID_4_" gradientUnits="userSpaceOnUse" x1="36.4101" y1="43.3538" x2="50.1835" y2="43.3538">
		
		
		
	<stop offset="0.0159" stop-color="#ccc"></stop><stop offset="0.1323" stop-color="#fff"></stop><stop offset="1" stop-color="#000"></stop></linearGradient>
	<path class="linear" fill="url(#SVGID_4_)" d="M37.255,43.666l-0.622-0.301c-0.297-0.144-0.297-0.379,0-0.523l0.622-0.301l12.083,0.5l0.622,0.301
		c0.297,0.144,0.297,0.379,0,0.523l-0.622,0.301L37.255,43.666z"></path>
	<linearGradient class="linear" id="SVGID_5_" gradientUnits="userSpaceOnUse" x1="36.4101" y1="44.8678" x2="50.1835" y2="44.8678">
		
		
		
	<stop offset="0.0159" stop-color="#ccc"></stop><stop offset="0.1323" stop-color="#fff"></stop><stop offset="1" stop-color="#000"></stop></linearGradient>
	<path class="linear" fill="url(#SVGID_5_)" d="M37.255,45.18l-0.622-0.301c-0.297-0.144-0.297-0.379,0-0.523l0.622-0.301l12.083,0.5l0.622,0.301
		c0.297,0.144,0.297,0.379,0,0.523l-0.622,0.301L37.255,45.18z"></path>
	<linearGradient class="linear" id="SVGID_6_" gradientUnits="userSpaceOnUse" x1="36.4101" y1="46.3817" x2="50.1835" y2="46.3817">
		
		
		
	<stop offset="0.0159" stop-color="#ccc"></stop><stop offset="0.1323" stop-color="#fff"></stop><stop offset="1" stop-color="#000"></stop></linearGradient>
	<path class="linear" fill="url(#SVGID_6_)" d="M37.255,46.694l-0.622-0.301c-0.297-0.144-0.297-0.379,0-0.523l0.622-0.301l12.083,0.5l0.622,0.301
		c0.297,0.144,0.297,0.379,0,0.523l-0.622,0.301L37.255,46.694z"></path>
	<linearGradient class="linear" id="SVGID_7_" gradientUnits="userSpaceOnUse" x1="36.4101" y1="47.8957" x2="50.1835" y2="47.8957">
		
		
		
	<stop offset="0.0159" stop-color="#ccc"></stop><stop offset="0.1323" stop-color="#fff"></stop><stop offset="1" stop-color="#000"></stop></linearGradient>
	<path class="linear" fill="url(#SVGID_7_)" d="M37.255,48.208l-0.622-0.301c-0.297-0.144-0.297-0.379,0-0.523l0.622-0.301l12.083,0.5l0.622,0.301
		c0.297,0.144,0.297,0.379,0,0.523l-0.622,0.301L37.255,48.208z"></path>
	<linearGradient class="linear" id="SVGID_8_" gradientUnits="userSpaceOnUse" x1="33.3842" y1="18.2136" x2="52.8132" y2="18.2136">
		
		
	<stop offset="0" stop-color="#ccc"></stop><stop offset="1" stop-color="#000"></stop></linearGradient>
	<polygon class="linear" fill="url(#SVGID_8_)" points="33.384,16.92 37.926,19.507 48.271,19.507 52.813,16.92 	"></polygon>
	<linearGradient class="linear" id="SVGID_9_" gradientUnits="userSpaceOnUse" x1="42.2156" y1="74.0145" x2="44.3604" y2="74.0145">
		
		
	<stop offset="0" stop-color="#ccc"></stop><stop offset="1" stop-color="#000"></stop></linearGradient>
	<path class="linear" fill="url(#SVGID_9_)" d="M42.216,48.905v49.332l0.359,0.602c0.379,0.371,0.982,0.382,1.374,0.024l0.412-0.626V48.905H42.216z
		"></path>
</g>
<g id="dark">
	<path fill="#4d4d4d" d="M69.015,15.496c0.555,0,1.009-0.454,1.009-1.009v-1.934c0-0.555-0.454-1.009-1.009-1.009h-2.523
		c-0.555,0-1.009,0.454-1.009,1.009v1.934c0,0.555,0.454,1.009,1.009,1.009H69.015z"></path>
	<path fill="#4d4d4d" d="M45.517,25.993c0-0.275-0.225-0.5-0.5-0.5h-1.271c-0.275,0-0.5,0.225-0.5,0.5v2.766
		c0,0.275,0.225,0.5,0.5,0.5h1.271c0.275,0,0.5-0.225,0.5-0.5V25.993z"></path>
	<path fill="#4d4d4d" d="M47.199,30.913c0-0.55-0.45-1-1-1h-1.953c-0.55,0-1,0.45-1,1v2.542c0,0.55,0.45,1,1,1h1.953
		c0.55,0,1-0.45,1-1V30.913z"></path>
	<path fill="#4d4d4d" d="M51.11,36.91c0-0.55-0.45-1-1-1h-0.523c-0.55,0-1,0.45-1,1v2.542c0,0.55,0.45,1,1,1h0.523
		c0.55,0,1-0.45,1-1V36.91z"></path>
	<path fill="#4d4d4d" d="M48.587,36.91c0-0.55-0.45-1-1-1h-5.822c-0.55,0-1,0.45-1,1v2.542c0,0.55,0.45,1,1,1h5.822
		c0.55,0,1-0.45,1-1V36.91z"></path>
</g>
<g id="light">
	<path fill="#ccc" d="M70.024,8.599c0-0.555-0.454-1.009-1.009-1.009h-2.523c-0.555,0-1.009,0.454-1.009,1.009v1.934
		c0,0.555,0.454,1.009,1.009,1.009h2.523c0.555,0,1.009-0.454,1.009-1.009V8.599z"></path>
	<path fill="#ccc" d="M30.077,12.258l0.948,2.096L53.952,3.989c-0.432-0.956-0.472-1.044-0.94-2.08L30.077,12.258z"></path>
	<path fill="#ccc" d="M36.466,35.91c-0.55,0-1,0.45-1,1v2.542c0,0.55,0.45,1,1,1h3.299c0.55,0,1-0.45,1-1V36.91
		c0-0.55-0.45-1-1-1H36.466z"></path>
	<path fill="#ccc" d="M41.48,25.493c-0.278,0-0.505,0.227-0.505,0.505v2.757c0,0.278,0.227,0.505,0.505,0.505h1.262
		c0.278,0,0.505-0.227,0.505-0.505v-2.757c0-0.278-0.227-0.505-0.505-0.505H41.48z"></path>
	<path fill="#ccc" d="M40.293,29.913c-0.55,0-1,0.45-1,1v2.542c0,0.55,0.45,1,1,1h1.953c0.55,0,1-0.45,1-1v-2.542
		c0-0.55-0.45-1-1-1H40.293z"></path>
	<path fill="#ccc" d="M40.383,4.544c1.172-0.53,2.332-0.983,3.458-1.365l-0.706-1.561l-7.271,3.281l0.732,1.62
		C37.76,5.824,39.027,5.157,40.383,4.544z"></path>
</g>
<g id="shadow">
	<path fill="#000" d="M51.11,36.91c0-0.55-0.45-1-1-1h-0.523c-0.55,0-1,0.45-1,1v2.542c0,0.55,0.45,1,1,1h0.523
		c0.55,0,1-0.45,1-1V36.91z"></path>
	<rect x="40.176" y="24.742" fill="#000" width="5.845" height="0.75"></rect>
</g>
<g id="hlight">
	<path fill="#fff" stroke="#FFFFFF" stroke-width="0.5" stroke-linecap="round" stroke-miterlimit="10" d="M43.5,6.201
		l-10.267,4.633"></path>
	
		<line fill="#fff" stroke="#fff" stroke-width="0.5" stroke-linecap="round" stroke-miterlimit="10" x1="43.135" y1="1.618" x2="35.865" y2="4.899"></line>
	<path fill="#fff" d="M39.765,35.91c0.55,0,1,0.45,1,1c0-0.55,0.45-1,1-1H39.765z"></path>
	<path fill="#fff" stroke="#FFFFFF" stroke-width="0.5" stroke-linecap="round" stroke-miterlimit="10" d="M40.765,36.16h-4.299"></path>
	<path fill="#fff" d="M34.75,9.833c0.333-1.083,1.75-3.167,1.75-3.167L40,4.833c0,0,1.583,0.583,2.75,1.667L34.75,9.833z"></path>
</g>
</g>
</svg>