<svg version="1.1" id="Layer_1" xmlns="http://www.w3.org/2000/svg" xmlns:xlink="http://www.w3.org/1999/xlink" x="0px" y="0px" viewBox="0 0 100 100" xml:space="preserve"><desc>Copyright Opto 22</desc> 
<g>
<g id="shape">
	<polygon fill="#999" points="34.38,76.5 18.759,49.445 34.38,22.389 65.62,22.389 81.241,49.445 65.62,76.5 	"></polygon>
</g>
<g id="dark">
	<path fill="#666" d="M50.433,25c-13.531,0-24.5,10.969-24.5,24.5c0,13.531,10.969,24.5,24.5,24.5
		c13.531,0,24.5-10.969,24.5-24.5C74.933,35.969,63.964,25,50.433,25z M50.433,68.75c-10.631,0-19.25-8.619-19.25-19.25
		s8.619-19.25,19.25-19.25s19.25,8.619,19.25,19.25S61.064,68.75,50.433,68.75z"></path>
</g>
<g id="light">
	<circle fill="#FF3333" cx="50.433" cy="49.5" r="19.25"></circle>
	<path fill="#FF3333" d="M59.331,57.488L63.2,85c0.025,0.331,0.05,0.662,0.05,1c0,7.318-5.932,13.25-13.25,13.25
		c-7.318,0-13.25-5.932-13.25-13.25c0-0.338,0.026-0.669,0.05-1l3.867-27.5"></path>
</g>
<g id="shadow">

		<polygon fill="#000" points="37.996,76.5 34.38,76.5 19.192,50.194 18.759,50.944 34.38,78 37.785,78 		"></polygon>
		<polygon points="80.808,50.194 65.621,76.5 62.004,76.5 62.215,78 65.621,78 81.241,50.944 		" fill="#000"></polygon>

	<g fill="#000">
		<path d="M73.433,49.5c0,8.918-4.872,16.64-12.374,20.279l0.151,1.07C69.398,67.126,74.933,58.96,74.933,49.5H73.433z" fill="#000"></path>
		<path d="M39.091,68.71c-6.686-3.956-11.158-11.087-11.158-19.21c0-12.407,9.869-22.5,22-22.5c12.268,0,22.25,10.093,22.25,22.5h1
			c0-12.958-10.43-23.5-23.25-23.5c-12.682,0-23,10.542-23,23.5c0,8.633,4.832,16.188,12.009,20.274L39.091,68.71z" fill="#000"></path>
	</g>
	<path d="M50.433,30.25c-5.57,0-10.573,2.38-14.088,6.162c3.436-3.194,8.027-5.162,13.088-5.162c10.631,0,19.25,8.619,19.25,19.25
		c0,5.061-1.968,9.652-5.162,13.088c3.782-3.515,6.162-8.518,6.162-14.088C69.683,38.869,61.064,30.25,50.433,30.25z" fill="#000"></path>
	<path d="M39.56,65.38l0.48-3.414c-2.865-3.359-4.607-7.704-4.607-12.466c0-9.912,7.495-18.068,17.125-19.127
		c-0.699-0.077-1.406-0.123-2.125-0.123c-10.631,0-19.25,8.619-19.25,19.25C31.183,56.095,34.503,61.911,39.56,65.38z" fill="#000"></path>
	<g fill="#000">
		<g fill="#000">
			<g fill="#000">
				<path d="M50,99.25c-5.799,0-10.5-6.098-10.5-13.62c0-0.347,0.02-0.687,0.04-1.028l2.45-28.353l-1.157-0.416L36.8,85
					c-0.025,0.331-0.05,0.662-0.05,1C36.75,93.318,42.682,99.25,50,99.25z" fill="#000"></path>
			</g>
		</g>
	</g>
	<path d="M41.706,56.6l-0.931-0.364c0.042-0.108,1.064-2.667,3.88-4.203l0.229,0.379C42.399,53.766,41.715,56.576,41.706,56.6z" fill="#000"></path>
</g>
<g id="hlight">
	<polygon fill="#f2f2f2" points="80.241,49.695 64.892,23.11 34.787,23.11 34.5,22.639 65.37,22.639 80.991,49.695 	"></polygon>
	<path fill="#f2f2f2" d="M50.433,26c12.703,0,23,10.797,23,23.5h1.5c0-13.531-10.969-24.5-24.5-24.5V26z"></path>
	<path fill="#f2f2f2" d="M61.716,61.75c3.5-1.5,5.5-6.75,5.5-11.75s-1.25-9.333-5-12.75c-3.187-2.904-6.917-5.167-11.083-4.833
		c0,0,7.032,5.954,8.667,11.583c0.622,2.143,0.308,5.563,0.605,8.832C60.823,57.442,61.716,61.75,61.716,61.75z"></path>
	<path fill="#f2f2f2" d="M58.333,57.167c-1-5.167-4.716-5.233-4.716-5.233s-0.778,27.899-0.251,27.899
		c0.667,0,4.833-0.167,8.167,4.167L58.333,57.167z"></path>
</g>
</g>
</svg>