<svg version="1.1" id="Layer_1" xmlns="http://www.w3.org/2000/svg" xmlns:xlink="http://www.w3.org/1999/xlink" x="0px" y="0px" viewBox="0 0 100 100" xml:space="preserve"><desc>Copyright Opto 22</desc> 

<g>
	<g id="frame">
		<rect x="0" fill="none" width="100" height="100"></rect>
	</g>
	<g id="shape">
		<path fill="#006837" d="M18.5,31.3c0.5,0,0.9,0.1,1.3,0.3L50,46.6l30.2-15.1c0.9-0.5,2-0.4,2.9,0.1c0.9,0.5,1.4,1.5,1.4,2.6v31.5
			c0,1-0.5,2-1.4,2.6c-0.9,0.5-2,0.6-2.9,0.1L50,53.4L19.8,68.4c-0.9,0.5-2,0.4-2.9-0.1c-0.9-0.5-1.4-1.5-1.4-2.6V34.3
			c0-1,0.5-2,1.4-2.6C17.4,31.4,18,31.3,18.5,31.3z"></path>
		<g>
			<path fill="#006837" d="M34.3,15.5h31.5c1,0,2,0.5,2.6,1.4c0.5,0.9,0.6,2,0.1,2.9L52.7,51.3c-0.5,1-1.5,1.7-2.7,1.7
				c-1.1,0-2.2-0.6-2.7-1.7L31.6,19.8c-0.5-0.9-0.4-2,0.1-2.9S33.2,15.5,34.3,15.5z"></path>
		</g>
	</g>
	<g id="dark">
		<path fill="#009245" d="M18.5,32.3c0.3,0,0.6,0.1,0.9,0.2L50,47.8l30.6-15.3c0.6-0.3,1.4-0.3,1.9,0.1c0.6,0.4,0.9,1,0.9,1.7v31.5
			c0,0.7-0.4,1.3-0.9,1.7c-0.6,0.4-1.3,0.4-1.9,0.1L50,52.2L19.4,67.5c-0.6,0.3-1.4,0.3-1.9-0.1c-0.6-0.4-0.9-1-0.9-1.7V34.3
			c0-0.7,0.4-1.3,0.9-1.7C17.8,32.4,18.1,32.3,18.5,32.3z"></path>
		<path fill="#009245" d="M34.3,16.5h31.5c0.7,0,1.3,0.4,1.7,0.9c0.4,0.6,0.4,1.3,0.1,1.9L51.8,50.9c-0.3,0.7-1,1.1-1.8,1.1
			s-1.5-0.4-1.8-1.1L32.5,19.4c-0.3-0.6-0.3-1.4,0.1-1.9C32.9,16.9,33.6,16.5,34.3,16.5z"></path>
	</g>
	<g id="light">
		<path fill="#96D48D" d="M81.5,33.8c0.1,0,0.2,0,0.3,0.1c0.1,0.1,0.2,0.3,0.2,0.4v31.5c0,0.2-0.1,0.3-0.2,0.4
			c-0.1,0.1-0.3,0.1-0.5,0L49.8,50.4c-0.2-0.1-0.3-0.3-0.3-0.4s0.1-0.4,0.3-0.4l31.5-15.8C81.3,33.8,81.4,33.8,81.5,33.8z"></path>
		<path fill="#96D48D" d="M18.5,33.8c0.1,0,0.2,0,0.2,0.1l31.5,15.8c0.2,0.1,0.3,0.3,0.3,0.4s-0.1,0.4-0.3,0.4L18.7,66.2
			c-0.2,0.1-0.3,0.1-0.5,0c-0.1-0.1-0.2-0.3-0.2-0.4V34.3c0-0.2,0.1-0.3,0.2-0.4C18.3,33.8,18.4,33.8,18.5,33.8z"></path>
		<path fill="#96D48D" d="M34.3,18h31.5c0.2,0,0.3,0.1,0.4,0.2c0.1,0.1,0.1,0.3,0,0.5L50.4,50.2c-0.2,0.3-0.7,0.3-0.9,0L33.8,18.7
			c-0.1-0.2-0.1-0.3,0-0.5C33.9,18.1,34.1,18,34.3,18z"></path>
	</g>
	<g id="hlight">
		<rect y="0" fill="#FFFFFF" width="1" height="1" opacity="0"></rect>
		<g class="alt" id="a1">	<polygon fill="#FFFFFF" points="81,64.9 81,35.1 51.1,50 		"></polygon></g>
		<g class="alt" id="a2">	<polygon fill="#FFFFFF" points="64.9,19 35.1,19 50,48.9 		"></polygon></g>
		<g class="alt" id="a3">	<polygon fill="#FFFFFF" points="48.9,50 19,35.1 19,64.9 		"></polygon></g>
	</g>
</g>
</svg>